<?xml version="1.0" encoding="utf-8"?>
<!-- Generator: Adobe Illustrator 18.1.1, SVG Export Plug-In . SVG Version: 6.00 Build 0)  -->
<!DOCTYPE svg PUBLIC "-//W3C//DTD SVG 1.1//EN" "http://www.w3.org/Graphics/SVG/1.1/DTD/svg11.dtd">
<svg version="1.1" id="Layer_1" xmlns="http://www.w3.org/2000/svg" xmlns:xlink="http://www.w3.org/1999/xlink" x="0px" y="0px"
	 viewBox="0 0 15 15" enable-background="new 0 0 15 15" xml:space="preserve">
<g>
	<defs>
		<path id="SVGID_1_" d="M6.2,9L4.5,7.4c-0.2-0.2-0.5-0.2-0.7,0c-0.2,0.2-0.2,0.5,0,0.7l1.6,1.6l0.7,0.7l0.7-0.7l4.3-4.3
			c0.2-0.2,0.2-0.5,0-0.7c-0.2-0.2-0.5-0.2-0.7,0L6.2,9z"/>
	</defs>
	<use xlink:href="#SVGID_1_"  overflow="visible" fill-rule="evenodd" clip-rule="evenodd" fill="#0080FF"/>
	<clipPath id="SVGID_2_">
		<use xlink:href="#SVGID_1_"  overflow="visible"/>
	</clipPath>
	<g clip-path="url(#SVGID_2_)">
		<defs>
			<rect id="SVGID_3_" x="-617" y="-398.3" width="1560" height="1788.6"/>
		</defs>
		<use xlink:href="#SVGID_3_"  overflow="visible" fill="#0080FF"/>
		<clipPath id="SVGID_4_">
			<use xlink:href="#SVGID_3_"  overflow="visible"/>
		</clipPath>
		<rect x="-1.7" y="-0.8" clip-path="url(#SVGID_4_)" fill="#0080FF" width="18.3" height="16.6"/>
	</g>
</g>
<path fill="#0080FF" d="M7.5,1C3.9,1,1,3.9,1,7.5C1,11.1,3.9,14,7.5,14S14,11.1,14,7.5C14,3.9,11.1,1,7.5,1z M7.5,13.2
	c-3.1,0-5.7-2.5-5.7-5.7c0-3.1,2.5-5.7,5.7-5.7s5.7,2.5,5.7,5.7C13.2,10.6,10.6,13.2,7.5,13.2z"/>
</svg>
