<?xml version="1.0" encoding="utf-8"?>
<!-- Generator: Adobe Illustrator 18.1.1, SVG Export Plug-In . SVG Version: 6.00 Build 0)  -->
<!DOCTYPE svg PUBLIC "-//W3C//DTD SVG 1.1//EN" "http://www.w3.org/Graphics/SVG/1.1/DTD/svg11.dtd">
<svg version="1.1" xmlns="http://www.w3.org/2000/svg" xmlns:xlink="http://www.w3.org/1999/xlink" x="0px" y="0px"
	 viewBox="0 0 612 792" enable-background="new 0 0 612 792" xml:space="preserve">
<g id="Layer_1">
	<circle fill="#0080FF" cx="306" cy="396" r="301"/>
</g>
<g id="Layer_2">
	<path fill="#FFFFFF" d="M218.2,487.8c0,11.2,3.2,19.3,9.6,24.4c6.4,5.1,15.9,7.7,28.3,7.9v23.1c-20.9-0.2-37-5-48.5-14.3
		c-11.4-9.3-17.1-22.5-17.1-39.4v-49.9c0-11.4-3.5-19.6-10.4-24.5c-6.9-4.9-17-7.3-30.2-7.3v-23.2c14.3-0.2,24.6-2.9,31-7.9
		c6.4-5.1,9.6-12.9,9.6-23.4v-50.4c0-17,5.9-30.3,17.8-39.7c11.9-9.5,27.8-14.2,47.8-14.2v22.9c-25.3,0.7-37.9,11.6-37.9,32.8v48.6
		c0,23.6-12.3,37.6-36.8,41.9v2c24.5,4.3,36.8,18.2,36.8,41.9V487.8z"/>
	<path fill="#FFFFFF" d="M428.2,395c-24.5-4.3-36.8-18.2-36.8-41.9v-48.6c0-21.2-12.5-32.1-37.4-32.8v-22.9
		c20.2,0,36.1,4.8,47.7,14.3c11.6,9.6,17.4,22.7,17.4,39.6v50.4c0,10.7,3.2,18.5,9.7,23.5c6.5,5,16.9,7.6,31.2,7.8v23.2
		c-13.4,0-23.6,2.4-30.5,7.3c-6.9,4.9-10.4,13.1-10.4,24.5v49.9c0,16.8-5.6,29.9-16.9,39.3c-11.3,9.4-27.3,14.2-48.2,14.4v-23.1
		c12.2-0.2,21.5-2.9,27.9-7.9c6.4-5.1,9.6-13.2,9.6-24.4v-49c0-12.5,3-22.1,9.1-28.7c6-6.6,15.3-11,27.7-13.2V395z"/>
</g>
</svg>
