<?xml version="1.0" encoding="utf-8"?>
<!-- Generator: Adobe Illustrator 18.1.1, SVG Export Plug-In . SVG Version: 6.00 Build 0)  -->
<!DOCTYPE svg PUBLIC "-//W3C//DTD SVG 1.1//EN" "http://www.w3.org/Graphics/SVG/1.1/DTD/svg11.dtd">
<svg version="1.1" id="Layer_1" xmlns="http://www.w3.org/2000/svg" xmlns:xlink="http://www.w3.org/1999/xlink" x="0px" y="0px"
	 viewBox="0 0 61 61" enable-background="new 0 0 61 61" xml:space="preserve">
<g>
	<circle fill="#0080FF" cx="30.5" cy="30.5" r="30"/>
	<g>
		<path fill="#FFFFFF" d="M32.3,35h-3.7v-2c0-0.9,0.1-1.5,0.3-1.9c0.2-0.4,0.7-1,1.3-1.7l2.4-2.4c0.5-0.5,0.7-1.2,0.7-2
			c0-0.8-0.3-1.5-0.8-2c-0.5-0.5-1.2-0.8-2-0.8c-0.8,0-1.5,0.3-2.1,0.8c-0.6,0.5-0.9,1.2-1,2h-3.9c0.2-1.9,1-3.4,2.3-4.5
			c1.3-1.1,2.9-1.6,4.8-1.6s3.5,0.5,4.7,1.6c1.2,1,1.8,2.5,1.8,4.4c0,1.3-0.4,2.4-1.1,3.2c-0.4,0.5-0.7,0.9-0.9,1.1
			c-0.2,0.2-0.5,0.5-0.9,0.8c-0.4,0.3-0.7,0.6-0.9,0.9c-0.2,0.2-0.4,0.5-0.6,0.6c-0.4,0.5-0.6,1.1-0.6,2V35z M30.6,42.1
			c-0.7,0-1.3-0.2-1.8-0.7c-0.5-0.5-0.7-1-0.7-1.7s0.2-1.2,0.7-1.7c0.5-0.5,1.1-0.7,1.8-0.7c0.7,0,1.3,0.2,1.8,0.7
			c0.5,0.5,0.7,1,0.7,1.7s-0.2,1.2-0.7,1.7C31.8,41.9,31.2,42.1,30.6,42.1z"/>
	</g>
</g>
</svg>
