<?xml version="1.0" encoding="utf-8"?>
<!-- Generator: Adobe Illustrator 18.1.1, SVG Export Plug-In . SVG Version: 6.00 Build 0)  -->
<!DOCTYPE svg PUBLIC "-//W3C//DTD SVG 1.1//EN" "http://www.w3.org/Graphics/SVG/1.1/DTD/svg11.dtd">
<svg version="1.1" id="Layer_1" xmlns="http://www.w3.org/2000/svg" xmlns:xlink="http://www.w3.org/1999/xlink" x="0px" y="0px"
	 viewBox="0 0 61 61" enable-background="new 0 0 61 61" xml:space="preserve">
<g>
	<circle fill="#ED1C24" cx="30.5" cy="30.5" r="30"/>
	<path fill="#FFFFFF" d="M39.3,18.1L30.5,27l-8.8-8.8c-1-1-2.6-1-3.5,0c-1,1-1,2.6,0,3.5l8.8,8.8l-8.8,8.8c-1,1-1,2.6,0,3.5
		c1,1,2.6,1,3.5,0l8.8-8.8l8.8,8.8c1,1,2.6,1,3.5,0c1-1,1-2.6,0-3.5L34,30.5l8.8-8.8c1-1,1-2.6,0-3.5C41.9,17.1,40.3,17.1,39.3,18.1
		z"/>
</g>
</svg>
